# xmcd
#
# Track frame offsets: 
#        150
#        11100
#        26254
#        39555
#        56229
#        78178
#        86747
#        99393
#        104098
#        128962
#        156961
#        170854
#        187072
#        195100
#        206947
#        222675
#
# Disc length: 3282 seconds
#
# Revision: 3
# Processed by: cddbd v1.5.2PL0 Copyright (c) Steve Scherf et al.
# Submitted via: ExactAudioCopyFreeDBPlugin 1.0
#
DISCID=ea0cd010
DTITLE=Various Artist - Allons Boire un Coup
DYEAR=2006
DGENRE=Cajun
TTITLE0=Joel Savoy, Linzay Young, Richard Burgess - Allons Boire un Co
TTITLE0=up
TTITLE1=Racines - Whiskey C'est Mon Ami
TTITLE2=Anna Laura Edmiston - Mon Bon Vieux Mari
TTITLE3=The Lost Bayou Ramblers - La Bouteille a Ruiné Ma Vie
TTITLE4=Courtney Granger - La Valse du Bambocheur
TTITLE5=Ann and Joel Savoy - Si J'aurais des Ailes
TTITLE6=Feufollet - Drunkard's Dream
TTITLE7=Cedric Watson - Table Ronde
TTITLE8=The Pine Leaf Boys - Pine Grove Blues
TTITLE9=Racines - One Scotch, One Bourbon, One Beer
TTITLE10=Cedric Watson - La Jog a Plombeau
TTITLE11=The Red Stick Ramblers - Blues du Saoulard
TTITLE12=Joel Savoy - Drunkard's Waltz
TTITLE13=Ann Savoy and Jane Vidrine - Quand J'etais Vaillante
TTITLE14=Chris Stafford - Parlez-Nous à Boire
TTITLE15=The Lost Bayou Ramblers - Rye Whiskey
EXTD=
EXTT0=
EXTT1=
EXTT2=
EXTT3=
EXTT4=
EXTT5=
EXTT6=
EXTT7=
EXTT8=
EXTT9=
EXTT10=
EXTT11=
EXTT12=
EXTT13=
EXTT14=
EXTT15=
PLAYORDER=
